<svg id="Слой_1" data-name="Слой 1" xmlns="http://www.w3.org/2000/svg" viewBox="0 0 485.59 302.77"><defs><style>.cls-1{fill:#e5f1ef;}.cls-2{fill:#c8d9d2;}.cls-3{fill:#907b00;}.cls-4{fill:#b59b00;}.cls-12,.cls-14,.cls-15,.cls-16,.cls-19,.cls-20,.cls-21,.cls-22,.cls-23,.cls-5,.cls-8{fill:none;}.cls-16,.cls-17,.cls-19,.cls-20,.cls-21,.cls-22,.cls-23,.cls-5{stroke:#423c52;}.cls-15,.cls-17,.cls-19,.cls-20,.cls-22,.cls-23,.cls-5,.cls-8{stroke-linecap:round;}.cls-12,.cls-14,.cls-15,.cls-16,.cls-17,.cls-19,.cls-20,.cls-21,.cls-22,.cls-23,.cls-5,.cls-8{stroke-miterlimit:10;}.cls-12,.cls-14,.cls-16,.cls-17,.cls-19,.cls-20,.cls-5,.cls-8{stroke-width:5px;}.cls-6{fill:#ffdb00;}.cls-7{fill:#423c52;}.cls-12,.cls-15,.cls-8{stroke:#fff;}.cls-17,.cls-9{fill:#fff;}.cls-10{fill:#a0505a;}.cls-11{fill:#fe552f;}.cls-13{fill:#ff7500;}.cls-14{stroke:#fe552f;}.cls-15,.cls-23{stroke-width:4px;}.cls-18{fill:#eb7500;}.cls-19{stroke-dasharray:17.12 17.12;}.cls-20{stroke-dasharray:16.83 16.83;}.cls-21,.cls-22{stroke-width:3px;}</style></defs><title>biozher</title><g id="Layer_2" data-name="Layer 2"><g id="Слой_1-2" data-name="Слой 1"><g id="CLOUDS"><path class="cls-1" d="M596.72,179.64a4.19,4.19,0,0,0,3.2-6.91,15.11,15.11,0,0,0-8.36-4.47C585.72,167,578.62,171,576.91,172c-.44-7.95-7.37-14.26-15.85-14.26-.34,0-.69,0-1,0-2.17-11.38-13-20-26-20-14.6,0-26.44,10.85-26.44,24.24a22.26,22.26,0,0,0,.22,3.11,16.15,16.15,0,0,0-1.94-.12c-5.8,0-12.45,3.59-13.24,9.35,0,0-31.33-8.5-31.51,5.49Z" transform="translate(-149.81 -112.5)"/><path class="cls-1" d="M193.91,155.38H297.2c-.2-1-2.26-11.61-27.69-1.94,0,0,1.26-5.28-6.37-2.94s-4.91-8.13-11.61-9.81a7.17,7.17,0,0,0-7.86,2.48c-.77-10.47-10-18.74-21.24-18.74-11.76,0-21.29,9-21.29,20.16a19.41,19.41,0,0,0,.11,2c-1.21-1.5-3.87-2.83-7.5-2.75h-.25C186.12,144.33,186.53,155.38,193.91,155.38Z" transform="translate(-149.81 -112.5)"/></g><g id="WIND_TURBINES" data-name="WIND TURBINES"><path class="cls-1" d="M276,286.8l3.7-125.52a.6.6,0,1,1,1.21,0h0l3.6,125.52Z" transform="translate(-149.81 -112.5)"/><path class="cls-2" d="M285.09,137.67a107.58,107.58,0,0,1-3.85,22.53.64.64,0,0,1-1.24-.09,106.49,106.49,0,0,1-.73-22.75c.75-11,3-20.46,4.63-24.86C284.95,117.09,285.85,126.66,285.09,137.67Z" transform="translate(-149.81 -112.5)"/><path class="cls-2" d="M258.31,170.92a110.24,110.24,0,0,1,19.93-9.22.82.82,0,0,1,.8,1.4,119.44,119.44,0,0,1-18,12.66c-9.53,5.57-18.23,9.19-22.8,10.3C241.4,182.62,248.78,176.5,258.31,170.92Z" transform="translate(-149.81 -112.5)"/><path class="cls-2" d="M301.07,168.72c8.83,4.6,16.05,10.16,19,13.23-4.23-.68-12.29-3.82-21.13-8.42A107,107,0,0,1,282.09,163a.78.78,0,0,1,.67-1.35A84.31,84.31,0,0,1,301.07,168.72Z" transform="translate(-149.81 -112.5)"/><circle class="cls-1" cx="130.68" cy="48.69" r="2.57"/><path class="cls-1" d="M336.7,295.46,339.93,186a.53.53,0,0,1,1.05,0l3.14,109.48Z" transform="translate(-149.81 -112.5)"/><path class="cls-2" d="M347.26,169.82a78.71,78.71,0,0,1-6.11,15.7.47.47,0,0,1-.88-.24,78.43,78.43,0,0,1,2.83-16.55,72.52,72.52,0,0,1,7-17.27A71.87,71.87,0,0,1,347.26,169.82Z" transform="translate(-149.81 -112.5)"/><path class="cls-2" d="M323,189.88a81.24,81.24,0,0,1,15.76-3.72.61.61,0,0,1,.37,1.13,88,88,0,0,1-14.91,6.48c-7.71,2.62-14.53,4-18,4.07A71.87,71.87,0,0,1,323,189.88Z" transform="translate(-149.81 -112.5)"/><path class="cls-2" d="M354.22,194.6A61.17,61.17,0,0,1,366,207c-3-1.11-8.32-4.58-14-9.2a79.28,79.28,0,0,1-10.64-10.11.57.57,0,0,1,.69-.88A62.33,62.33,0,0,1,354.22,194.6Z" transform="translate(-149.81 -112.5)"/><circle class="cls-1" cx="190.86" cy="73.46" r="2.25"/></g><g id="HILLS"><path class="cls-3" d="M165.74,331.65H523s-34.53-44.86-95.84-35.11c-80.52,12.81-110.42-14.92-149.08-24.77-36.84-9.38-65,3-83.95,18.51-15.46,12.6-28.41,26.93-28.41,41.37Z" transform="translate(-149.81 -112.5)"/><path class="cls-4" d="M292.29,331.65S310.46,308,356.49,314.1c64,8.51,86.86-38.44,141.44-41.07,100-4.81,137.47,58.61,137.47,58.61Z" transform="translate(-149.81 -112.5)"/><polygon class="cls-4" points="12.84 219.15 0 206.1 14.52 216.16 14.05 206.61 20.85 214.91 19.65 185.19 24.72 211.71 29.57 207.1 29.12 215.08 34.6 212.82 30.3 219.14 12.84 219.15"/><path class="cls-4" d="M184.12,322.07a1.43,1.43,0,1,1-1.62-1.76,7,7,0,0,1,3.37-1.51A7,7,0,0,1,184.12,322.07Z" transform="translate(-149.81 -112.5)"/></g><g id="SUNFLOWERS"><line class="cls-5" x1="260.39" y1="271.35" x2="260.39" y2="167.14"/><path class="cls-6" d="M416.08,252.64c-.74,3.7-2.24,6.73-3.79,8-1-1.76-1.18-5.13-.44-8.83s2.24-6.73,3.79-8C416.59,245.57,416.82,248.94,416.08,252.64Z" transform="translate(-149.81 -112.5)"/><path class="cls-6" d="M409,288.28c-.74,3.7-2.24,6.73-3.79,8-1-1.76-1.18-5.13-.44-8.83s2.24-6.73,3.79-8C409.5,281.2,409.72,284.57,409,288.28Z" transform="translate(-149.81 -112.5)"/><path class="cls-6" d="M393.12,264.39c3.7.74,6.73,2.24,8,3.79-1.76,1-5.13,1.18-8.83.44s-6.73-2.24-8-3.79C386.05,263.88,389.42,263.66,393.12,264.39Z" transform="translate(-149.81 -112.5)"/><path class="cls-6" d="M428.76,271.49c3.7.74,6.73,2.24,8,3.79-1.76,1-5.13,1.18-8.83.44s-6.73-2.24-8-3.79C421.68,271,425.06,270.75,428.76,271.49Z" transform="translate(-149.81 -112.5)"/><path class="cls-6" d="M402.18,253.78c2.1,3.14,3.18,6.34,3,8.33-1.92-.57-4.46-2.79-6.56-5.93s-3.18-6.34-3-8.33C397.54,248.42,400.08,250.64,402.18,253.78Z" transform="translate(-149.81 -112.5)"/><path class="cls-6" d="M422.36,284c2.1,3.14,3.18,6.34,3,8.33-1.92-.57-4.46-2.79-6.56-5.93s-3.18-6.34-3-8.33C417.72,278.63,420.26,280.86,422.36,284Z" transform="translate(-149.81 -112.5)"/><path class="cls-6" d="M394.26,278.33c3.14-2.1,6.34-3.18,8.33-3-.57,1.92-2.79,4.46-5.93,6.56s-6.34,3.18-8.33,3C388.89,283,391.12,280.42,394.26,278.33Z" transform="translate(-149.81 -112.5)"/><path class="cls-6" d="M424.47,258.15c3.14-2.1,6.34-3.18,8.33-3-.57,1.92-2.79,4.46-5.93,6.56s-6.34,3.18-8.33,3C419.11,262.79,421.33,260.24,424.47,258.15Z" transform="translate(-149.81 -112.5)"/><path class="cls-6" d="M409.39,252.4c.65,3.59.36,6.84-.59,8.52-1.47-1.25-2.87-4.2-3.51-7.78s-.36-6.84.59-8.52C407.36,245.87,408.75,248.82,409.39,252.4Z" transform="translate(-149.81 -112.5)"/><path class="cls-6" d="M415.57,286.94c.65,3.59.36,6.84-.59,8.52-1.47-1.25-2.87-4.2-3.51-7.78s-.36-6.84.59-8.52C413.54,280.4,414.93,283.35,415.57,286.94Z" transform="translate(-149.81 -112.5)"/><path class="cls-6" d="M392.89,271.06c3.59-.65,6.84-.36,8.52.59-1.25,1.47-4.2,2.87-7.78,3.51s-6.84.36-8.52-.59C386.35,273.09,389.3,271.7,392.89,271.06Z" transform="translate(-149.81 -112.5)"/><path class="cls-6" d="M427.43,264.88c3.59-.65,6.84-.36,8.52.59-1.25,1.47-4.2,2.87-7.78,3.51s-6.84.36-8.52-.59C420.89,266.92,423.84,265.53,427.43,264.88Z" transform="translate(-149.81 -112.5)"/><path class="cls-6" d="M397.18,258.84c3,2,5.13,4.42,5.69,6.25-1.9.2-5-.82-8-2.81s-5.14-4.42-5.69-6.25C391.12,255.82,394.18,256.84,397.18,258.84Z" transform="translate(-149.81 -112.5)"/><path class="cls-6" d="M426.1,278c3,2,5.13,4.42,5.69,6.25-1.9.2-5-.82-8-2.81s-5.13-4.42-5.69-6.25C420,275,423.09,276,426.1,278Z" transform="translate(-149.81 -112.5)"/><path class="cls-6" d="M399.25,283.38c2-3,4.42-5.13,6.25-5.68.2,1.9-.82,5-2.81,8s-4.42,5.13-6.25,5.69C396.23,289.45,397.25,286.38,399.25,283.38Z" transform="translate(-149.81 -112.5)"/><path class="cls-6" d="M418.44,254.47c2-3,4.42-5.13,6.25-5.69.2,1.9-.82,5-2.81,8s-4.42,5.14-6.25,5.69C415.42,260.53,416.44,257.47,418.44,254.47Z" transform="translate(-149.81 -112.5)"/><circle class="cls-7" cx="260.71" cy="157.55" r="10.77"/><path class="cls-7" d="M421.29,270.06v.09a10.68,10.68,0,0,1-.18,1.91c0,.11,0,.21-.06.31a10.62,10.62,0,0,1-.61,1.9l-.14.31a10.62,10.62,0,0,1-.74,1.34c-.1.15-.2.3-.31.45l-.08.11-.24.31a10.65,10.65,0,0,1-1.58,1.6l-.31.24-.08.06-.44.31a10.53,10.53,0,0,1-1.38.78l-.31.14a10.74,10.74,0,0,1-1.9.62l-.31.06a10.78,10.78,0,0,1-1.9.2h-.31a10.76,10.76,0,0,1-1.9-.19l-.31-.06a10.52,10.52,0,0,1-1.9-.62l-.31-.14a10.5,10.5,0,0,1-1.41-.8l-.44-.31-.06,0-.31-.24a10.67,10.67,0,0,1-1.61-1.62l-.24-.31-.05-.08q-.16-.22-.31-.45a10.34,10.34,0,0,1-.77-1.38l-.14-.31a10.62,10.62,0,0,1-.61-1.9l-.06-.31a10.88,10.88,0,0,1-.18-1.91v-.31a10.74,10.74,0,0,1,.21-1.9c0-.11,0-.21.07-.31a10.65,10.65,0,0,1,.63-1.9l.14-.31a10.63,10.63,0,0,1,.71-1.26c.1-.15.2-.3.31-.45l.15-.2.25-.31a10.69,10.69,0,0,1,1.51-1.49l.31-.24.22-.16.46-.31a10.43,10.43,0,0,1,1.22-.67l.31-.14a10.52,10.52,0,0,1,1.9-.62l.31-.06a10.66,10.66,0,0,1,1.9-.19h.31a10.68,10.68,0,0,1,1.9.2l.31.07a10.65,10.65,0,0,1,1.9.62l.31.14a10.38,10.38,0,0,1,1.19.66l.46.31.25.19.31.24a10.77,10.77,0,0,1,1.48,1.47l.25.31.18.23c.11.15.22.3.31.45a10.56,10.56,0,0,1,.69,1.22l.14.31a10.65,10.65,0,0,1,.63,1.9l.07.31a10.64,10.64,0,0,1,.21,1.9C421.29,269.91,421.29,270,421.29,270.06Z" transform="translate(-149.81 -112.5)"/><path class="cls-4" d="M401.83,263.7v12.71q-.16-.22-.31-.45V264.15C401.62,264,401.72,263.85,401.83,263.7Z" transform="translate(-149.81 -112.5)"/><path class="cls-4" d="M404,261.46v17.2l-.31-.24V261.7Z" transform="translate(-149.81 -112.5)"/><path class="cls-4" d="M406.26,260.17v19.78l-.31-.14v-19.5Z" transform="translate(-149.81 -112.5)"/><path class="cls-4" d="M408.48,259.48v21.15l-.31-.06v-21Z" transform="translate(-149.81 -112.5)"/><path class="cls-4" d="M410.69,259.29v21.53h-.31V259.29h.31Z" transform="translate(-149.81 -112.5)"/><path class="cls-4" d="M412.9,259.56v21l-.31.06V259.49Z" transform="translate(-149.81 -112.5)"/><path class="cls-4" d="M415.12,260.32v19.47l-.31.14V260.18Z" transform="translate(-149.81 -112.5)"/><path class="cls-4" d="M417.33,261.72v16.67l-.31.24V261.48Z" transform="translate(-149.81 -112.5)"/><path class="cls-4" d="M419.55,264.19v11.73c-.1.15-.2.3-.31.45V263.74Z" transform="translate(-149.81 -112.5)"/><path class="cls-4" d="M416.94,278.7l-.44.31h-12l-.44-.31Z" transform="translate(-149.81 -112.5)"/><path class="cls-4" d="M419.16,276.49l-.24.31h-16.8l-.24-.31Z" transform="translate(-149.81 -112.5)"/><path class="cls-4" d="M420.43,274.27l-.14.31H400.75l-.14-.31Z" transform="translate(-149.81 -112.5)"/><path class="cls-4" d="M421.1,272.05c0,.11,0,.21-.06.31H400l-.06-.31Z" transform="translate(-149.81 -112.5)"/><path class="cls-4" d="M421.29,270.06v.09H399.75v-.31h21.53C421.29,269.91,421.29,270,421.29,270.06Z" transform="translate(-149.81 -112.5)"/><path class="cls-4" d="M421.08,267.94H400c0-.11,0-.21.07-.31h21C421,267.73,421.06,267.83,421.08,267.94Z" transform="translate(-149.81 -112.5)"/><path class="cls-4" d="M420.38,265.72H400.66l.14-.31h19.43Z" transform="translate(-149.81 -112.5)"/><path class="cls-4" d="M419.06,263.51H402l.25-.31h16.59Z" transform="translate(-149.81 -112.5)"/><path class="cls-4" d="M416.77,261.29H404.27l.46-.31h11.59Z" transform="translate(-149.81 -112.5)"/><path class="cls-3" d="M413.22,321.24V315a19.05,19.05,0,0,1,14-18.36l9.91-2.64-4.87,14A12.88,12.88,0,0,1,420,316.68h0a7.39,7.39,0,0,0-6.74,4.36Z" transform="translate(-149.81 -112.5)"/><path class="cls-8" d="M413.11,321.35v-6.23a19.05,19.05,0,0,1,14-18.36l9.91-2.64" transform="translate(-149.81 -112.5)"/><path class="cls-3" d="M383.82,317.22c2.45,0,3.6,1.42,4.63,3.64l3.56,7.65a15.81,15.81,0,0,0,14.34,9.16h0v-4.42a16,16,0,0,0-16-16h-6.5Z" transform="translate(-149.81 -112.5)"/><path class="cls-8" d="M406.56,337.35h0v-4.42a16,16,0,0,0-16-16h-6.71" transform="translate(-149.81 -112.5)"/><path class="cls-5" d="M410.2,350.9s-2.64-19.55-16.48-29.17" transform="translate(-149.81 -112.5)"/><path class="cls-5" d="M410.2,339.21s-.78-24.06,15.3-34.07" transform="translate(-149.81 -112.5)"/><line class="cls-5" x1="452.16" y1="263.5" x2="452.16" y2="165"/><path class="cls-6" d="M596.55,251.65c.68,3.42,2.07,6.22,3.5,7.39.88-1.63,1.09-4.74.41-8.17s-2.07-6.22-3.51-7.39C596.08,245.11,595.87,248.23,596.55,251.65Z" transform="translate(-149.81 -112.5)"/><path class="cls-6" d="M603.11,284.61c.68,3.42,2.07,6.22,3.5,7.39.88-1.63,1.09-4.74.41-8.17s-2.07-6.22-3.5-7.39C602.64,278.06,602.43,281.18,603.11,284.61Z" transform="translate(-149.81 -112.5)"/><path class="cls-6" d="M617.78,262.52c-3.42.68-6.22,2.07-7.39,3.5,1.63.88,4.74,1.09,8.17.41s6.22-2.07,7.39-3.5C624.32,262,621.2,261.84,617.78,262.52Z" transform="translate(-149.81 -112.5)"/><path class="cls-6" d="M584.83,269.08c-3.42.68-6.22,2.07-7.39,3.5,1.63.88,4.74,1.09,8.17.41s6.22-2.07,7.39-3.5C591.37,268.61,588.25,268.4,584.83,269.08Z" transform="translate(-149.81 -112.5)"/><path class="cls-6" d="M609.4,252.71c-1.94,2.9-2.94,5.86-2.75,7.7,1.77-.53,4.12-2.59,6.06-5.49s2.94-5.86,2.75-7.7C613.69,247.75,611.34,249.8,609.4,252.71Z" transform="translate(-149.81 -112.5)"/><path class="cls-6" d="M590.75,280.65c-1.94,2.9-2.94,5.86-2.75,7.7,1.77-.53,4.12-2.59,6.06-5.49s2.94-5.86,2.75-7.7C595,275.69,592.68,277.74,590.75,280.65Z" transform="translate(-149.81 -112.5)"/><path class="cls-6" d="M616.73,275.4c-2.9-1.94-5.86-2.94-7.7-2.75.53,1.77,2.59,4.12,5.49,6.06s5.86,2.94,7.7,2.75C621.69,279.69,619.63,277.34,616.73,275.4Z" transform="translate(-149.81 -112.5)"/><path class="cls-6" d="M588.79,256.74c-2.9-1.94-5.86-2.94-7.7-2.75.53,1.77,2.59,4.12,5.49,6.06s5.86,2.94,7.7,2.75C593.75,261,591.69,258.68,588.79,256.74Z" transform="translate(-149.81 -112.5)"/><path class="cls-6" d="M602.74,251.43c-.59,3.32-.33,6.32.55,7.88,1.36-1.15,2.65-3.88,3.24-7.2s.33-6.32-.55-7.88C604.62,245.39,603.33,248.12,602.74,251.43Z" transform="translate(-149.81 -112.5)"/><path class="cls-6" d="M597,283.37c-.59,3.32-.33,6.32.55,7.88,1.36-1.15,2.65-3.88,3.24-7.2s.33-6.32-.55-7.88C598.91,277.32,597.62,280.05,597,283.37Z" transform="translate(-149.81 -112.5)"/><path class="cls-6" d="M618,268.69c-3.32-.59-6.32-.33-7.88.55,1.15,1.36,3.88,2.65,7.2,3.24s6.32.33,7.88-.55C624,270.57,621.31,269.28,618,268.69Z" transform="translate(-149.81 -112.5)"/><path class="cls-6" d="M586.06,263c-3.32-.59-6.32-.33-7.88.55,1.15,1.36,3.88,2.65,7.2,3.24s6.32.33,7.88-.55C592.1,264.85,589.38,263.57,586.06,263Z" transform="translate(-149.81 -112.5)"/><path class="cls-6" d="M614,257.38c-2.78,1.84-4.75,4.08-5.26,5.77,1.76.19,4.59-.75,7.36-2.6s4.75-4.08,5.26-5.78C619.63,254.59,616.8,255.54,614,257.38Z" transform="translate(-149.81 -112.5)"/><path class="cls-6" d="M587.29,275.13c-2.78,1.84-4.75,4.08-5.26,5.78,1.76.19,4.59-.75,7.36-2.6s4.75-4.08,5.26-5.78C592.9,272.34,590.07,273.28,587.29,275.13Z" transform="translate(-149.81 -112.5)"/><path class="cls-6" d="M612.12,280.08c-1.84-2.78-4.08-4.75-5.77-5.26-.19,1.76.75,4.59,2.6,7.36s4.08,4.75,5.78,5.26C614.91,285.69,614,282.86,612.12,280.08Z" transform="translate(-149.81 -112.5)"/><path class="cls-6" d="M594.37,253.34c-1.84-2.78-4.08-4.75-5.78-5.26-.19,1.76.75,4.59,2.6,7.36s4.09,4.75,5.78,5.26C597.16,259,596.22,256.12,594.37,253.34Z" transform="translate(-149.81 -112.5)"/><circle class="cls-7" cx="451.88" cy="155.26" r="9.96"/><path class="cls-7" d="M591.74,267.76v.09a9.89,9.89,0,0,0,.17,1.76c0,.1,0,.19.06.29a9.63,9.63,0,0,0,.56,1.76l.13.29a9.6,9.6,0,0,0,.69,1.24q.14.22.29.42l.08.11.22.29a9.88,9.88,0,0,0,1.46,1.48l.29.23.08.06.41.29a9.91,9.91,0,0,0,1.28.72l.29.13a9.86,9.86,0,0,0,1.76.58l.29.06a9.89,9.89,0,0,0,1.76.18h.29a9.89,9.89,0,0,0,1.76-.18l.29-.06a9.81,9.81,0,0,0,1.76-.57l.29-.13a9.64,9.64,0,0,0,1.3-.73l.41-.29.05,0,.29-.23a9.87,9.87,0,0,0,1.49-1.5l.22-.29.05-.07q.15-.2.29-.41a9.72,9.72,0,0,0,.71-1.28l.13-.29a9.71,9.71,0,0,0,.56-1.76c0-.09,0-.19.06-.29a10.09,10.09,0,0,0,.17-1.76v-.29a10,10,0,0,0-.19-1.76c0-.1,0-.19-.06-.29a9.88,9.88,0,0,0-.59-1.76l-.13-.29a10,10,0,0,0-.66-1.17q-.14-.22-.29-.41l-.14-.18-.23-.29A9.9,9.9,0,0,0,608,260l-.29-.23-.21-.15-.43-.29a9.66,9.66,0,0,0-1.13-.62l-.29-.13a9.81,9.81,0,0,0-1.76-.57l-.29-.06a9.89,9.89,0,0,0-1.76-.18h-.29a9.89,9.89,0,0,0-1.76.18l-.29.06a9.94,9.94,0,0,0-1.76.58l-.29.13a9.75,9.75,0,0,0-1.1.61l-.42.29-.23.17-.29.23a9.93,9.93,0,0,0-1.37,1.36l-.23.29-.16.22-.29.42a9.72,9.72,0,0,0-.63,1.13l-.13.29a10,10,0,0,0-.59,1.76l-.06.29a10,10,0,0,0-.19,1.76A1.32,1.32,0,0,1,591.74,267.76Z" transform="translate(-149.81 -112.5)"/><path class="cls-4" d="M609.73,261.88v11.75q.15-.2.29-.41V262.3Z" transform="translate(-149.81 -112.5)"/><path class="cls-4" d="M607.68,259.8v15.91l.29-.23V260Z" transform="translate(-149.81 -112.5)"/><path class="cls-4" d="M605.63,258.61V276.9l.29-.13v-18Z" transform="translate(-149.81 -112.5)"/><path class="cls-4" d="M603.59,258v19.55l.29-.06V258Z" transform="translate(-149.81 -112.5)"/><path class="cls-4" d="M601.54,257.8v19.91h.29V257.8h-.29Z" transform="translate(-149.81 -112.5)"/><path class="cls-4" d="M599.49,258v19.42l.29.06V258Z" transform="translate(-149.81 -112.5)"/><path class="cls-4" d="M597.44,258.75v18l.29.13V258.62Z" transform="translate(-149.81 -112.5)"/><path class="cls-4" d="M595.39,260v15.42l.29.23V259.82Z" transform="translate(-149.81 -112.5)"/><path class="cls-4" d="M593.34,262.33v10.85q.14.22.29.42V261.92Z" transform="translate(-149.81 -112.5)"/><path class="cls-4" d="M595.76,275.75l.41.29h11.06l.41-.29Z" transform="translate(-149.81 -112.5)"/><path class="cls-4" d="M593.71,273.7l.22.29h15.53l.22-.29Z" transform="translate(-149.81 -112.5)"/><path class="cls-4" d="M592.53,271.65l.13.29h18.07l.13-.29Z" transform="translate(-149.81 -112.5)"/><path class="cls-4" d="M591.91,269.61c0,.1,0,.19.06.29h19.45c0-.09,0-.19.06-.29Z" transform="translate(-149.81 -112.5)"/><path class="cls-4" d="M591.74,267.76v.09h19.91v-.29H591.74C591.74,267.62,591.74,267.69,591.74,267.76Z" transform="translate(-149.81 -112.5)"/><path class="cls-4" d="M591.93,265.8h19.53c0-.1,0-.19-.06-.29H592Z" transform="translate(-149.81 -112.5)"/><path class="cls-4" d="M592.58,263.75h18.23l-.13-.29h-18Z" transform="translate(-149.81 -112.5)"/><path class="cls-4" d="M593.79,261.7h15.8l-.23-.29H594Z" transform="translate(-149.81 -112.5)"/><path class="cls-4" d="M595.91,259.65h11.57l-.43-.29H596.33Z" transform="translate(-149.81 -112.5)"/><path class="cls-3" d="M599.3,314.45v-4.88a14.93,14.93,0,0,0-10.94-14.38l-7.87-1.74,3.92,10.63a10.09,10.09,0,0,0,9.54,6.8h0a5.79,5.79,0,0,1,5.28,3.42Z" transform="translate(-149.81 -112.5)"/><path class="cls-8" d="M599.3,313.48v-4a14.93,14.93,0,0,0-10.94-14.38l-7.76-1.53" transform="translate(-149.81 -112.5)"/><path class="cls-3" d="M605.4,329.18v-4.42c0-8.83,6.38-16,14.25-16h6.73a20.4,20.4,0,0,1-20.4,20.4Z" transform="translate(-149.81 -112.5)"/><path class="cls-8" d="M605.4,329.08h0v-4.42c0-8.83,6.38-16,14.25-16h6.73" transform="translate(-149.81 -112.5)"/><path class="cls-5" d="M602,340.82s2.34-17.37,14.65-25.92" transform="translate(-149.81 -112.5)"/><path class="cls-5" d="M602,329.36s.69-20.33-13.6-29.22" transform="translate(-149.81 -112.5)"/><line class="cls-5" x1="408.59" y1="271.04" x2="408.59" y2="187.63"/><path class="cls-6" d="M563.83,274.28c-.68,3.42-2.07,6.22-3.5,7.39-.88-1.63-1.09-4.74-.41-8.17s2.07-6.22,3.5-7.39C564.3,267.74,564.51,270.85,563.83,274.28Z" transform="translate(-149.81 -112.5)"/><path class="cls-6" d="M557.27,307.23c-.68,3.42-2.07,6.22-3.5,7.39-.88-1.63-1.09-4.74-.41-8.17s2.07-6.22,3.5-7.39C557.74,300.69,557.95,303.8,557.27,307.23Z" transform="translate(-149.81 -112.5)"/><path class="cls-6" d="M542.6,285.15c3.42.68,6.22,2.07,7.39,3.5-1.63.88-4.74,1.09-8.17.41s-6.22-2.07-7.39-3.5C536.06,284.67,539.18,284.46,542.6,285.15Z" transform="translate(-149.81 -112.5)"/><path class="cls-6" d="M575.55,291.71c3.42.68,6.22,2.07,7.39,3.5-1.63.88-4.74,1.09-8.17.41s-6.22-2.07-7.39-3.5C569,291.23,572.13,291,575.55,291.71Z" transform="translate(-149.81 -112.5)"/><path class="cls-6" d="M551,275.33c1.94,2.9,2.94,5.86,2.75,7.7-1.77-.53-4.12-2.59-6.06-5.49s-2.94-5.86-2.75-7.7C546.68,270.37,549,272.43,551,275.33Z" transform="translate(-149.81 -112.5)"/><path class="cls-6" d="M569.63,303.27c1.94,2.9,2.94,5.86,2.75,7.7-1.77-.53-4.12-2.59-6.06-5.49s-2.94-5.86-2.75-7.7C565.34,298.31,567.7,300.37,569.63,303.27Z" transform="translate(-149.81 -112.5)"/><path class="cls-6" d="M543.65,298c2.9-1.94,5.86-2.94,7.7-2.75-.53,1.77-2.59,4.12-5.49,6.06s-5.86,2.94-7.7,2.75C538.69,302.32,540.75,300,543.65,298Z" transform="translate(-149.81 -112.5)"/><path class="cls-6" d="M571.59,279.37c2.9-1.94,5.86-2.94,7.7-2.75-.53,1.77-2.59,4.12-5.49,6.06s-5.86,2.94-7.7,2.75C566.63,283.66,568.69,281.31,571.59,279.37Z" transform="translate(-149.81 -112.5)"/><path class="cls-6" d="M557.64,274.06c.59,3.32.33,6.32-.55,7.88-1.36-1.15-2.65-3.88-3.24-7.2s-.33-6.32.55-7.88C555.76,268,557,270.74,557.64,274.06Z" transform="translate(-149.81 -112.5)"/><path class="cls-6" d="M563.35,306c.59,3.32.33,6.32-.55,7.88-1.36-1.15-2.65-3.88-3.24-7.2s-.33-6.32.55-7.88C561.47,299.95,562.76,302.68,563.35,306Z" transform="translate(-149.81 -112.5)"/><path class="cls-6" d="M542.39,291.31c3.32-.59,6.32-.33,7.88.55-1.15,1.36-3.88,2.65-7.2,3.24s-6.32.33-7.88-.55C536.34,293.19,539.07,291.9,542.39,291.31Z" transform="translate(-149.81 -112.5)"/><path class="cls-6" d="M574.32,285.6c3.32-.59,6.32-.33,7.88.55-1.15,1.36-3.88,2.65-7.2,3.24s-6.32.33-7.88-.55C568.28,287.48,571,286.19,574.32,285.6Z" transform="translate(-149.81 -112.5)"/><path class="cls-6" d="M546.35,280c2.78,1.84,4.75,4.08,5.26,5.77-1.76.19-4.59-.75-7.36-2.6s-4.75-4.08-5.26-5.78C540.75,277.22,543.57,278.16,546.35,280Z" transform="translate(-149.81 -112.5)"/><path class="cls-6" d="M573.09,297.75c2.78,1.84,4.75,4.08,5.26,5.78-1.76.19-4.59-.75-7.36-2.6s-4.75-4.08-5.26-5.78C567.49,295,570.31,295.91,573.09,297.75Z" transform="translate(-149.81 -112.5)"/><path class="cls-6" d="M548.26,302.7c1.84-2.78,4.08-4.75,5.78-5.26.19,1.76-.75,4.59-2.6,7.36s-4.08,4.75-5.78,5.26C545.47,308.31,546.42,305.48,548.26,302.7Z" transform="translate(-149.81 -112.5)"/><path class="cls-6" d="M566,276c1.84-2.78,4.08-4.75,5.78-5.26.19,1.76-.75,4.59-2.6,7.36s-4.09,4.75-5.78,5.26C563.22,281.58,564.16,278.75,566,276Z" transform="translate(-149.81 -112.5)"/><circle class="cls-7" cx="408.87" cy="177.88" r="9.96"/><path class="cls-7" d="M568.64,290.38v.09a9.89,9.89,0,0,1-.17,1.76l-.06.29a9.8,9.8,0,0,1-.56,1.76l-.13.29a9.73,9.73,0,0,1-.69,1.24q-.14.22-.29.42l-.08.11-.22.29a9.88,9.88,0,0,1-1.46,1.48l-.29.23-.08.06-.41.29a9.85,9.85,0,0,1-1.28.72l-.29.13a9.85,9.85,0,0,1-1.76.58l-.29.06a9.88,9.88,0,0,1-1.76.18h-.29a9.89,9.89,0,0,1-1.76-.18l-.29-.06a9.82,9.82,0,0,1-1.76-.57l-.29-.13a9.64,9.64,0,0,1-1.3-.74l-.41-.29-.05,0-.29-.23a9.82,9.82,0,0,1-1.49-1.5l-.22-.29-.05-.07c-.1-.13-.2-.27-.29-.41a9.72,9.72,0,0,1-.71-1.28l-.13-.29a9.8,9.8,0,0,1-.57-1.76l-.06-.29a10.1,10.1,0,0,1-.17-1.76v-.29a10,10,0,0,1,.19-1.76c0-.1,0-.19.06-.29a9.88,9.88,0,0,1,.59-1.76l.13-.29a9.82,9.82,0,0,1,.66-1.17l.29-.41.14-.18L551,284a9.84,9.84,0,0,1,1.4-1.38l.29-.23.21-.15.43-.29a9.57,9.57,0,0,1,1.13-.62l.29-.13a9.81,9.81,0,0,1,1.76-.57l.29-.06a10,10,0,0,1,1.76-.18h.29a9.88,9.88,0,0,1,1.76.18l.29.06a9.85,9.85,0,0,1,1.76.58l.29.13a9.67,9.67,0,0,1,1.11.61l.42.29.23.17.29.23a9.93,9.93,0,0,1,1.37,1.36l.23.29.16.22.29.42a9.55,9.55,0,0,1,.63,1.13l.13.29a10,10,0,0,1,.59,1.76l.06.29a10,10,0,0,1,.19,1.76A1.94,1.94,0,0,0,568.64,290.38Z" transform="translate(-149.81 -112.5)"/><path class="cls-4" d="M550.65,284.51v11.75c-.1-.13-.2-.27-.29-.41V284.92Z" transform="translate(-149.81 -112.5)"/><path class="cls-4" d="M552.7,282.43v15.91l-.29-.23V282.65Z" transform="translate(-149.81 -112.5)"/><path class="cls-4" d="M554.75,281.24v18.29l-.29-.13v-18Z" transform="translate(-149.81 -112.5)"/><path class="cls-4" d="M556.79,280.61v19.55l-.29-.06V280.66Z" transform="translate(-149.81 -112.5)"/><path class="cls-4" d="M558.84,280.43v19.91h-.29V280.43Z" transform="translate(-149.81 -112.5)"/><path class="cls-4" d="M560.89,280.67V300.1l-.29.06V280.61Z" transform="translate(-149.81 -112.5)"/><path class="cls-4" d="M562.94,281.38v18l-.29.13V281.25Z" transform="translate(-149.81 -112.5)"/><path class="cls-4" d="M565,282.67v15.42l-.29.23V282.45Z" transform="translate(-149.81 -112.5)"/><path class="cls-4" d="M567,285v10.85q-.14.22-.29.42V284.54C566.85,284.68,567,284.81,567,285Z" transform="translate(-149.81 -112.5)"/><path class="cls-4" d="M564.62,298.37l-.41.29H553.16l-.41-.29Z" transform="translate(-149.81 -112.5)"/><path class="cls-4" d="M566.67,296.33l-.22.29H550.92l-.22-.29Z" transform="translate(-149.81 -112.5)"/><path class="cls-4" d="M567.85,294.28l-.13.29H549.65l-.13-.29Z" transform="translate(-149.81 -112.5)"/><path class="cls-4" d="M568.47,292.23l-.06.29H549l-.06-.29Z" transform="translate(-149.81 -112.5)"/><path class="cls-4" d="M568.64,290.38v.09H548.73v-.29h19.91C568.64,290.25,568.64,290.31,568.64,290.38Z" transform="translate(-149.81 -112.5)"/><path class="cls-4" d="M568.45,288.42H548.92c0-.1,0-.19.06-.29h19.4Z" transform="translate(-149.81 -112.5)"/><path class="cls-4" d="M567.8,286.37H549.57l.13-.29h18Z" transform="translate(-149.81 -112.5)"/><path class="cls-4" d="M566.59,284.32h-15.8L551,284h15.34Z" transform="translate(-149.81 -112.5)"/><path class="cls-4" d="M564.47,282.28H552.9l.43-.29H564Z" transform="translate(-149.81 -112.5)"/><path class="cls-3" d="M561.08,337.86v-5.53A16.93,16.93,0,0,1,573.49,316l8.81-2.35L578,326.1a11.45,11.45,0,0,1-10.82,7.71h0a6.56,6.56,0,0,0-6,3.88Z" transform="translate(-149.81 -112.5)"/><path class="cls-8" d="M561.06,337.69l-.08.18v-5.53A16.93,16.93,0,0,1,573.39,316l8.81-2.35" transform="translate(-149.81 -112.5)"/><path class="cls-3" d="M536.48,335.68h0a18.17,18.17,0,0,0,18.17,18.17h.65v-3.93a14.25,14.25,0,0,0-14.25-14.25Z" transform="translate(-149.81 -112.5)"/><path class="cls-3" d="M578.83,352.06h0a14.4,14.4,0,0,1-18.22,9.09h0l-.49-.16,1-3a11.28,11.28,0,0,1,14.28-7.13h0Z" transform="translate(-149.81 -112.5)"/><path class="cls-5" d="M558.41,363.44s-2.34-15.22-14.65-23.76" transform="translate(-149.81 -112.5)"/><path class="cls-5" d="M558.41,353.06s-.69-20.33,13.6-29.22" transform="translate(-149.81 -112.5)"/><path class="cls-5" d="M558.41,383.54s-9.68-21.54,12.52-29.22" transform="translate(-149.81 -112.5)"/><path class="cls-7" d="M444,386.5h-59.9c.15-2.17,2.5-3,4.42-3a6.13,6.13,0,0,1,2.6.56,5.79,5.79,0,0,1,10.14-4.67l.11.14a.7.7,0,0,0,.07-.14c.56-2.56,4.51-6.41,10.94-6.41,7,0,11,3.75,12.54,7.64a5.78,5.78,0,0,1,9.54,2.74,8.16,8.16,0,0,1,3.45-.73C441.09,382.63,443.73,384.33,444,386.5Z" transform="translate(-149.81 -112.5)"/><circle class="cls-9" cx="267.92" cy="265.08" r="1.67"/><circle class="cls-9" cx="245.74" cy="268.94" r="0.96"/><ellipse class="cls-7" cx="265.16" cy="277.34" rx="3.84" ry="1.65"/><ellipse class="cls-7" cx="273.11" cy="276.02" rx="1.95" ry="0.83"/><path class="cls-7" d="M621.39,385.87V386H548.17v-.37a7.18,7.18,0,0,1,10-3.85,7.17,7.17,0,0,1,13.88,1h4.81c.49-2.49,3.31-3.64,5.8-3.64a6.73,6.73,0,0,1,1,.07,7.13,7.13,0,0,1-.08-1.09c0-4.6,4.39-8.34,9.81-8.34,5,0,9.06,3.12,9.72,7.18A7,7,0,0,1,614,382.33a5,5,0,0,1,2.66-.74A4.51,4.51,0,0,1,621.39,385.87Z" transform="translate(-149.81 -112.5)"/><circle class="cls-9" cx="447.8" cy="263.48" r="1.61"/></g><g id="WOMAN"><ellipse id="SHADOW" class="cls-1" cx="336.82" cy="299.52" rx="76.34" ry="3.26"/><g id="LEGS"><g id="LEFT"><path class="cls-10" d="M446,363.61a71.14,71.14,0,0,0,10.9.78,85.43,85.43,0,0,0,13.58-1l-2.92,17.26a77.82,77.82,0,0,1-11.42.75A74.36,74.36,0,0,1,444,380.5Z" transform="translate(-149.81 -112.5)"/><path class="cls-11" d="M472.31,379.1,469.47,412h-7.24c-.18-1.77-2.24-3.16-4.75-3.16s-4.57,1.39-4.75,3.16H427.8a3.2,3.2,0,0,1,1.77-2.86c2.7-1.36,7.68-4.22,8.91-7.38,2.26-5.78,1.36-22,1.31-23,.14,1.42,7.4,2.57,16.33,2.57C464.39,381.36,471.21,380.37,472.31,379.1Z" transform="translate(-149.81 -112.5)"/><ellipse class="cls-3" cx="306.31" cy="266.24" rx="16.33" ry="2.61"/><path class="cls-7" d="M444,380.5a74.37,74.37,0,0,0,12.09.86,77.57,77.57,0,0,0,11.42-.75l.65-3.69a79.58,79.58,0,0,0-12.07-.79,76.62,76.62,0,0,0-11.68.79Z" transform="translate(-149.81 -112.5)"/><path class="cls-12" d="M427.65,410.37H451a.58.58,0,0,0,.55-.4c.54-1.57,3-2.76,5.93-2.76s5.39,1.19,5.93,2.76a.58.58,0,0,0,.55.4h5.76" transform="translate(-149.81 -112.5)"/><path class="cls-8" d="M439.79,381.08c.14,1.42,7.4,2.57,16.33,2.57,8.26,0,15.09-1,16.18-2.25" transform="translate(-149.81 -112.5)"/></g><g id="RIGHT"><path class="cls-11" d="M548.11,412H523.19c-.18-1.77-2.24-3.16-4.75-3.16s-4.57,1.39-4.75,3.16h-7.24L503.6,379.1c1.09,1.27,7.92,2.25,16.18,2.25,8.93,0,16.19-1.15,16.33-2.57-.05.94-.95,17.2,1.31,23,1.23,3.16,6.21,6,8.91,7.38A3.2,3.2,0,0,1,548.11,412Z" transform="translate(-149.81 -112.5)"/><path class="cls-8" d="M503.6,381.4c1.09,1.27,7.92,2.25,16.18,2.25,8.93,0,16.41-1.15,16.55-2.57" transform="translate(-149.81 -112.5)"/><path class="cls-12" d="M548.19,410.37H524.86a.58.58,0,0,1-.55-.4c-.54-1.57-3-2.76-5.93-2.76S513,408.4,512.46,410a.58.58,0,0,1-.55.4h-5.76" transform="translate(-149.81 -112.5)"/><ellipse class="cls-3" cx="369.97" cy="266.24" rx="16.33" ry="2.61"/><path class="cls-10" d="M531.88,380.5a74.37,74.37,0,0,1-12.09.86,77.73,77.73,0,0,1-11.42-.75l-1.85-17.09A85.41,85.41,0,0,0,516,364a72.14,72.14,0,0,0,13.68-1.1h.13Z" transform="translate(-149.81 -112.5)"/><path class="cls-7" d="M531.88,380.5a74.38,74.38,0,0,1-12.09.86,77.59,77.59,0,0,1-11.42-.75l-.4-3.67a75.75,75.75,0,0,1,11.82-.81,76.63,76.63,0,0,1,11.68.79Z" transform="translate(-149.81 -112.5)"/></g></g><g id="HAIR"><path class="cls-6" d="M533.68,202.59a15.76,15.76,0,0,1-31.51,0,15,15,0,0,1,1.17-5.82,8.69,8.69,0,0,1-1.86.2,9.18,9.18,0,0,1-1.83-18.1l-13.51-.48s-4.11,0-3.69-2.93a2,2,0,0,1,1.9-1.79c-1.79-1.41-3.42-4.05.25-4.84,4.35-.93,12.29,2,14.41,4.33,1.43,1.6,1.52,4.78,1.52,5.56a8.77,8.77,0,0,1,.94-.05,9,9,0,0,1,8.89,9.15,9.51,9.51,0,0,1-.09,1.33,16,16,0,0,1,7.65-1.93A15.57,15.57,0,0,1,533.68,202.59Z" transform="translate(-149.81 -112.5)"/><circle class="cls-6" cx="390.41" cy="99.05" r="3.56"/></g><g id="OVERALLS"><path class="cls-2" d="M502,362.76A66.48,66.48,0,0,0,516,364a72.26,72.26,0,0,0,13.68-1.1l.12,0-.35-3.09L511.13,196.33H469.72l-30,164.75c0,1.83,8.19,3.32,17.21,3.32,6,0,13.08-.66,15.9-1.59a5.38,5.38,0,0,0,4.12-4.5l9.26-81.55a.88.88,0,0,1,1.74,0l8.71,80A6.57,6.57,0,0,0,502,362.76Z" transform="translate(-149.81 -112.5)"/><path class="cls-8" d="M479.4,196.51h0s-1,9,12.7,9c12.12,0,13.85-9,13.85-9" transform="translate(-149.81 -112.5)"/></g><g id="PUMPKIN"><path class="cls-7" d="M477.51,229.5c.15-1.47,3.17-3.44,5-3.44l1.83.25c-1.68.61-3.44,1.72-3.25,3.7Z" transform="translate(-149.81 -112.5)"/><ellipse class="cls-13" cx="485.91" cy="245.91" rx="14.3" ry="9.1" transform="translate(11.9 570.99) rotate(-80.31)"/><ellipse class="cls-13" cx="467.22" cy="242.72" rx="14.3" ry="9.1" transform="translate(-0.5 549.92) rotate(-80.31)"/><ellipse class="cls-13" cx="476.53" cy="244.24" rx="15.37" ry="8.89" transform="translate(5.75 560.36) rotate(-80.31)"/><path class="cls-8" d="M468.08,253.66a22.27,22.27,0,0,1-.66-10.93c.87-5.1,3.1-9.37,5.81-11.73" transform="translate(-149.81 -112.5)"/><path class="cls-8" d="M484,232.89c1.75,3.12,2.32,7.86,1.45,12.94s-3,9.26-5.71,11.65" transform="translate(-149.81 -112.5)"/></g><g id="HANDS"><g id="LEFT-2"><polygon class="cls-7" points="320.42 159.16 306.32 158.33 307.39 152.46 320.42 159.16"/><path class="cls-9" d="M464.4,225.94l-8.2,9.12a3.42,3.42,0,0,0,.91,5.29L478.9,252.2l-8.66,19.14L441,257.25a20.74,20.74,0,0,1-5.08-33.9L461.16,200a12.6,12.6,0,0,1,8.56-3.36Z" transform="translate(-149.81 -112.5)"/><path class="cls-1" d="M429.58,235.15v6.76c-.05-.31-.09-.62-.13-.93s0-.36-.06-.55a21.07,21.07,0,0,1,0-3.27c0-.18,0-.37,0-.55Q429.46,235.88,429.58,235.15Z" transform="translate(-149.81 -112.5)"/><path class="cls-1" d="M433.39,226.19V251q-.28-.38-.55-.77V227C433,226.7,433.2,226.44,433.39,226.19Z" transform="translate(-149.81 -112.5)"/><path class="cls-1" d="M437.21,222.19v32.68l-.55-.44V222.7Z" transform="translate(-149.81 -112.5)"/><path class="cls-1" d="M441,218.66v38.59l-.55-.27v-37.8Z" transform="translate(-149.81 -112.5)"/><polygon class="cls-1" points="295.02 102.62 295.02 146.58 294.48 146.32 294.48 103.13 295.02 102.62"/><polygon class="cls-1" points="298.84 99.09 298.84 148.42 298.29 148.16 298.29 99.59 298.84 99.09"/><polygon class="cls-1" points="302.65 95.56 302.65 150.26 302.11 150 302.11 96.06 302.65 95.56"/><path class="cls-1" d="M456.28,204.53V235l-.09.09a3.41,3.41,0,0,0-.46.65V205Z" transform="translate(-149.81 -112.5)"/><path class="cls-1" d="M456.28,239.72v24.88l-.55-.26V239A3.36,3.36,0,0,0,456.28,239.72Z" transform="translate(-149.81 -112.5)"/><polygon class="cls-1" points="310.28 88.49 310.28 118.22 309.74 118.83 309.74 89 310.28 88.49"/><polygon class="cls-1" points="310.28 129.47 310.28 153.94 309.74 153.68 309.74 129.17 310.28 129.47"/><path class="cls-1" d="M463.91,198.07v28.41l-.55.61V198.37h0Z" transform="translate(-149.81 -112.5)"/><polygon class="cls-1" points="314.1 131.55 314.1 155.78 313.55 155.52 313.55 131.25 314.1 131.55"/><path class="cls-1" d="M467.73,196.81v10.82l-.4,2.18-.1.55-.05.28V196.91Z" transform="translate(-149.81 -112.5)"/><polygon class="cls-1" points="317.91 133.62 317.91 157.62 317.37 157.36 317.37 133.32 317.91 133.62"/><polygon class="cls-1" points="321.73 135.69 321.73 155.95 321.18 157.16 321.18 135.4 321.47 135.55 321.73 135.69"/><polygon class="cls-1" points="325.54 137.77 325.54 147.54 325.53 147.54 325 148.73 325 137.47 325.54 137.77"/><polygon class="cls-1" points="329.08 139.69 328.99 139.91 328.81 140.3 328.81 139.54 329.08 139.69"/><polygon class="cls-1" points="322.33 154.63 322.08 155.17 312.84 155.17 311.7 154.63 322.33 154.63"/><polygon class="cls-1" points="324.05 150.81 323.81 151.36 304.93 151.36 303.79 150.81 324.05 150.81"/><polygon class="cls-1" points="325.78 147 325.54 147.52 325.54 147.54 297.02 147.54 295.89 147 325.78 147"/><path class="cls-1" d="M477.32,255.69l-.25.55h-37.9l-.85-.55Z" transform="translate(-149.81 -112.5)"/><path class="cls-1" d="M478.9,252.2l-.1.22H434.58c-.16-.18-.32-.36-.47-.55H478.3l.32.18Z" transform="translate(-149.81 -112.5)"/><path class="cls-1" d="M472.29,248.6H431.88l-.29-.55h39.69l.26.14Z" transform="translate(-149.81 -112.5)"/><path class="cls-1" d="M465.27,244.79h-35q-.09-.27-.16-.55h34.17Z" transform="translate(-149.81 -112.5)"/><path class="cls-1" d="M458.26,241H429.45c0-.18,0-.36-.06-.55h27.86Z" transform="translate(-149.81 -112.5)"/><path class="cls-1" d="M455.4,236.61a3.14,3.14,0,0,0-.07.55h-26c0-.18,0-.37,0-.55Z" transform="translate(-149.81 -112.5)"/><path class="cls-1" d="M458.23,232.8l-.49.55H430c0-.18.1-.37.15-.55Z" transform="translate(-149.81 -112.5)"/><path class="cls-1" d="M461.66,229l-.49.55H431.36l.28-.55Z" transform="translate(-149.81 -112.5)"/><path class="cls-1" d="M464.54,225.17l-.1.55H433.76q.22-.28.45-.55Z" transform="translate(-149.81 -112.5)"/><polygon class="cls-1" points="315.43 108.76 315.34 109.3 287.81 109.3 288.4 108.76 315.43 108.76"/><polygon class="cls-1" points="316.13 104.94 316.03 105.49 291.93 105.49 292.52 104.94 316.13 104.94"/><polygon class="cls-1" points="316.82 101.13 316.72 101.67 296.05 101.67 296.64 101.13 316.82 101.13"/><polygon class="cls-1" points="317.51 97.31 317.42 97.86 300.17 97.86 300.76 97.31 317.51 97.31"/><polygon class="cls-1" points="318.21 93.5 318.11 94.04 304.29 94.04 304.88 93.5 318.21 93.5"/><polygon class="cls-1" points="318.9 89.68 318.8 90.23 308.4 90.23 309 89.68 318.9 89.68"/><path class="cls-1" d="M469.41,198.37l-.1.55h-6.79q.41-.29.85-.54h6Z" transform="translate(-149.81 -112.5)"/><path class="cls-14" d="M470.23,271.34,441,257.25a20.74,20.74,0,0,1-5.08-33.9L461.16,200a12.6,12.6,0,0,1,8.56-3.36" transform="translate(-149.81 -112.5)"/><path class="cls-14" d="M464.4,225.94l-8.2,9.12a3.42,3.42,0,0,0,.91,5.29L478.9,252.2" transform="translate(-149.81 -112.5)"/></g><g id="RIGHT-2"><polygon class="cls-7" points="368.46 147.38 368.94 151.73 353.04 147.59 368.46 147.38"/><path class="cls-9" d="M514.22,224.18l8.88,11.77a1.82,1.82,0,0,1-1.45,2.91h-18.8v21H532.2a16.35,16.35,0,0,0,13.22-26l-22.86-31.43a14.13,14.13,0,0,0-11.43-5.82Z" transform="translate(-149.81 -112.5)"/><rect class="cls-1" x="353.04" y="126.36" width="0.3" height="21.01"/><rect class="cls-1" x="356.6" y="126.36" width="0.55" height="21.01"/><rect class="cls-1" x="360.41" y="126.36" width="0.55" height="21.01"/><path class="cls-1" d="M514.59,197.08v27.58l-.37-.49-.18-1.61V197Z" transform="translate(-149.81 -112.5)"/><rect class="cls-1" x="364.23" y="126.36" width="0.55" height="21.01"/><path class="cls-1" d="M518.4,198.67v31.05l-.15-.19-.4-.53V198.36h0Z" transform="translate(-149.81 -112.5)"/><rect class="cls-1" x="368.04" y="126.36" width="0.55" height="21.01"/><path class="cls-1" d="M522.22,202v32.75l-.55-.73V201.37Q522,201.69,522.22,202Z" transform="translate(-149.81 -112.5)"/><path class="cls-1" d="M522.22,238.78v21.1h-.55v-21A1.9,1.9,0,0,0,522.22,238.78Z" transform="translate(-149.81 -112.5)"/><polygon class="cls-1" points="376.22 94.75 376.22 147.37 375.67 147.37 375.67 93.99 375.71 94.04 376.22 94.75"/><polygon class="cls-1" points="380.04 99.99 380.04 147.37 379.49 147.37 379.49 99.24 380.04 99.99"/><path class="cls-1" d="M533.66,217.74v42.07l-.55,0V217l.33.46Z" transform="translate(-149.81 -112.5)"/><path class="cls-1" d="M537.48,223v36l-.55.17v-37Z" transform="translate(-149.81 -112.5)"/><path class="cls-1" d="M541.29,228.23v28.92l-.55.35v-30Z" transform="translate(-149.81 -112.5)"/><path class="cls-1" d="M545.11,233.34v20.22q-.27.34-.55.67V232.72l.05.08.4.55Z" transform="translate(-149.81 -112.5)"/><path class="cls-1" d="M548.56,244.24c0,.18,0,.37,0,.55q0,.61-.15,1.22v-5A15.86,15.86,0,0,1,548.56,244.24Z" transform="translate(-149.81 -112.5)"/><path class="cls-1" d="M543.16,255.69l-.63.55H502.85v-.55Z" transform="translate(-149.81 -112.5)"/><path class="cls-1" d="M546.26,251.87l-.34.55H502.85v-.55Z" transform="translate(-149.81 -112.5)"/><path class="cls-1" d="M547.91,248.06c-.05.18-.11.37-.17.55H502.85v-.55Z" transform="translate(-149.81 -112.5)"/><path class="cls-1" d="M548.56,244.24c0,.18,0,.37,0,.55H502.85v-.55Z" transform="translate(-149.81 -112.5)"/><path class="cls-1" d="M548.38,241H502.85v-.55h45.44c0,.17.06.34.09.51Z" transform="translate(-149.81 -112.5)"/><path class="cls-1" d="M547.28,237.16H523.47a1.72,1.72,0,0,0,0-.55H547C547.12,236.79,547.2,237,547.28,237.16Z" transform="translate(-149.81 -112.5)"/><polygon class="cls-1" points="395.2 120.84 371.32 120.84 370.91 120.29 394.8 120.29 395.2 120.84"/><polygon class="cls-1" points="392.43 117.03 368.45 117.03 368.04 116.49 368.03 116.48 392.03 116.48 392.43 117.03"/><polygon class="cls-1" points="389.65 113.21 365.56 113.21 365.15 112.66 389.25 112.66 389.65 113.21"/><polygon class="cls-1" points="386.81 109.3 364.14 109.3 364.08 108.76 386.41 108.76 386.81 109.3"/><polygon class="cls-1" points="384.03 105.49 363.71 105.49 363.65 104.94 383.64 104.94 383.85 105.24 384.03 105.49"/><polygon class="cls-1" points="381.26 101.67 363.29 101.67 363.23 101.13 380.86 101.13 381.26 101.67"/><polygon class="cls-1" points="378.49 97.86 362.86 97.86 362.8 97.31 378.09 97.31 378.49 97.86"/><polygon class="cls-1" points="375.71 94.04 362.43 94.04 362.37 93.5 375.31 93.5 375.67 93.99 375.71 94.04"/><path class="cls-1" d="M522.75,202.73H511.81l-.06-.55h10.6l.22.29Z" transform="translate(-149.81 -112.5)"/><path class="cls-1" d="M518.8,198.92h-7.42l-.06-.55h6.56l.52.3Z" transform="translate(-149.81 -112.5)"/><path class="cls-14" d="M511.13,196.65a14.14,14.14,0,0,1,11.43,5.82l22.86,31.43a16.35,16.35,0,0,1-13.22,26H503.49a35.58,35.58,0,0,0,0-21h18.2a1.82,1.82,0,0,0,1.45-2.91l-8.88-11.77" transform="translate(-149.81 -112.5)"/></g></g><g id="BEET"><path class="cls-3" d="M500,228.11s.74-21.12,7.36-19.27C516.4,211.38,500,228.11,500,228.11Z" transform="translate(-149.81 -112.5)"/><path class="cls-3" d="M500.85,228.16s.92-15.86-6-15.18,5.1,15.14,5.1,15.14Z" transform="translate(-149.81 -112.5)"/><path class="cls-4" d="M500,228.11s2.67-10.44,9.2-7.78-8.34,7.82-8.34,7.82Z" transform="translate(-149.81 -112.5)"/><path class="cls-4" d="M500.43,228.33s-3.33-6.8-7.67-3.49C491.32,225.94,500.43,228.33,500.43,228.33Z" transform="translate(-149.81 -112.5)"/><path class="cls-11" d="M507.35,233.16a6.23,6.23,0,0,1-4.49,5.65c-3.37,1-3.12,12.93-3.12,12.93s-.21-2.51-.4-7.28c-.16-4.08-.63-4.83-2.5-5.75-.22-.08-.41-.17-.61-.27h0a6,6,0,0,1-3.6-5.28c0-3.39,3.3-5.59,7.36-5.59S507.35,229.77,507.35,233.16Z" transform="translate(-149.81 -112.5)"/><path class="cls-3" d="M513.12,234.61s15.62-13.13,6.58-15.49c-6.69-1.74-7.24,14.94-7.24,14.94Z" transform="translate(-149.81 -112.5)"/><path class="cls-4" d="M512.46,234.06s6.88-12.8,10.84-9.2C530.25,231.17,512.46,234.06,512.46,234.06Z" transform="translate(-149.81 -112.5)"/><path class="cls-4" d="M512.46,234.06s8.56-1.92,9.27,2.35c.65,3.87-8.61-1.8-8.61-1.8Z" transform="translate(-149.81 -112.5)"/><path class="cls-4" d="M512.68,234.5s-.69-10.15-4-8.5C507,226.81,512.68,234.5,512.68,234.5Z" transform="translate(-149.81 -112.5)"/><path class="cls-11" d="M516.19,238.64H502.71a5.71,5.71,0,0,1,.83-5c2-2.71,6-2.48,9.25,0A8.47,8.47,0,0,1,516.19,238.64Z" transform="translate(-149.81 -112.5)"/><path class="cls-8" d="M502.66,238.76a5.76,5.76,0,0,1,.77-5.22c2-2.71,6-2.48,9.24,0" transform="translate(-149.81 -112.5)"/></g><g id="ARMS"><g id="LEFT-3"><path class="cls-11" d="M472.6,260.55c-2.39,5.29-3.56,10.63-2.48,11.12s4-4.05,6.4-9.34,3.45-10,2.37-10.46S475,255.26,472.6,260.55Z" transform="translate(-149.81 -112.5)"/><path class="cls-10" d="M492.54,261.82a7.87,7.87,0,0,1-2.64,5,13.7,13.7,0,0,1-13.59,2.94l-3.26-1-3-.91a39.92,39.92,0,0,1,2.55-7.33,35.43,35.43,0,0,1,4.18-7.22l2.46.73,1.34.39a8.67,8.67,0,0,0,5.35-.81s1.62.47-.78,3.41,3.58,3,6.65-1.7C491.8,255.36,493.17,256.45,492.54,261.82Z" transform="translate(-149.81 -112.5)"/><path class="cls-5" d="M492.27,261a14,14,0,0,1-6.36,4.77" transform="translate(-149.81 -112.5)"/><path class="cls-5" d="M492.3,258a13,13,0,0,1-6.14,4.55" transform="translate(-149.81 -112.5)"/><path class="cls-7" d="M479.25,254.07a33.52,33.52,0,0,1-2.72,8.26,49.21,49.21,0,0,1-3.48,6.46l-3-.91a39.92,39.92,0,0,1,2.55-7.33,35.43,35.43,0,0,1,4.18-7.22Z" transform="translate(-149.81 -112.5)"/></g><g id="RIGHT-3"><path class="cls-11" d="M499.94,249.15c0,5.8,1.4,11.05,2.91,11.05s2.57-5.25,2.57-11.05-1.23-10.5-2.74-10.5S499.94,243.35,499.94,249.15Z" transform="translate(-149.81 -112.5)"/><path class="cls-10" d="M502.79,238.66c1.46.22,2.63,4.83,2.63,10.5a40.6,40.6,0,0,1-.36,5.59l-6.68-.05c-3.69-.69-9.53-2.18-16.05-9-1.67-1.74-1.45-7.92-1.2-11.2a.91.91,0,0,1,1.58-.55c2.3,2.49,5.82,5.58,7.77,5.25,3.52-.6-2.26-4.29-.07-6.13,0,0,8.73,5.53,10.27,5.59Z" transform="translate(-149.81 -112.5)"/><path class="cls-5" d="M487.91,247.45a30.4,30.4,0,0,1-6.57-5.63" transform="translate(-149.81 -112.5)"/><path class="cls-5" d="M488,244.68a31.59,31.59,0,0,1-6.85-5.73" transform="translate(-149.81 -112.5)"/><path class="cls-5" d="M488.17,241.91a31.75,31.75,0,0,1-6.85-5.73" transform="translate(-149.81 -112.5)"/><path class="cls-7" d="M500.39,254.71a33,33,0,0,1-.45-5.56c0-5.67,1.17-10.28,2.63-10.5h.22c1.46.22,2.63,4.83,2.63,10.5a40.6,40.6,0,0,1-.36,5.59Z" transform="translate(-149.81 -112.5)"/></g></g><g id="NECK"><path class="cls-10" d="M504.37,196.33s-1.52,7.56-12.2,7.56-11.2-5.77-11.2-7.23a3.18,3.18,0,0,1,0-.33,6.06,6.06,0,0,0,5.93-4.79l1.75-8.19h10.13v9.92a3.06,3.06,0,0,0,3.06,3.06h2.53Z" transform="translate(-149.81 -112.5)"/><polygon class="cls-7" points="348.97 70.84 348.97 81.85 337.43 77.44 338.93 70.84 348.97 70.84"/></g><g id="HEAD"><path class="cls-10" d="M498.83,178.07a2.65,2.65,0,1,1,.11,5.3H497l-.27.66a7.69,7.69,0,0,1-7.12,4.78h-1a3.6,3.6,0,0,1-3.56-4.15l1.09-7.13a5.4,5.4,0,0,1,4-4.41c.35.85,2.22,4.86,6.25,5Z" transform="translate(-149.81 -112.5)"/><path class="cls-5" d="M497.46,181.36a2,2,0,0,1,2-2h0" transform="translate(-149.81 -112.5)"/><path class="cls-5" d="M486.3,178.24a2.4,2.4,0,0,1,2.52,1.22c.51,1-.18,4.61-.18,4.61" transform="translate(-149.81 -112.5)"/><path class="cls-5" d="M491.39,178.75a5.26,5.26,0,0,1,3.22.94" transform="translate(-149.81 -112.5)"/><ellipse class="cls-7" cx="487.2" cy="180.71" rx="0.69" ry="0.36" transform="translate(91.19 525.82) rotate(-82.07)"/><ellipse class="cls-7" cx="492.29" cy="181.17" rx="0.73" ry="0.38" transform="matrix(0.14, -0.99, 0.99, 0.14, 95.12, 531.26)"/><path class="cls-7" d="M496.4,178.08c-6,.1-7.62-2.64-7.42-4.53a5.29,5.29,0,0,1,1.12-.43C490.46,174,492.42,177.94,496.4,178.08Z" transform="translate(-149.81 -112.5)"/></g></g><g id="MAN"><ellipse id="SHADOW-2" class="cls-1" cx="127.8" cy="271.37" rx="91.74" ry="3.71"/><g id="CART"><g id="CART-2"><path class="cls-5" d="M273.06,285.51h7.47a17,17,0,0,1,16.7,14L313,379a3.41,3.41,0,0,0,3.35,2.8h0a3.41,3.41,0,0,0,3.26-2.41L328,351.06" transform="translate(-149.81 -112.5)"/><path class="cls-7" d="M268.55,317H316a6.79,6.79,0,0,1,2.41.44l55.52,21.12H328.15a18.83,18.83,0,0,1-6.75-1.25Z" transform="translate(-149.81 -112.5)"/></g><g id="CARROT"><path class="cls-7" d="M339.26,314.44l-.42-.25a16.54,16.54,0,0,1,2.55-3.56,5.5,5.5,0,0,1,5.51-1.5l-.14.51C342.51,308.36,339.28,314.39,339.26,314.44Z" transform="translate(-149.81 -112.5)"/><path class="cls-7" d="M341.23,311s1.8-.21,1.42.79c-.24.63-2.49.32-2.49.32s0-2.72,1-2.75C342,309.36,341.23,311,341.23,311Z" transform="translate(-149.81 -112.5)"/><path class="cls-7" d="M342.57,309.9s1.65.13,1.06.73c-.3.31-2.15.15-2.15.15s.8-2.46,1.6-2.57S342.57,309.9,342.57,309.9Z" transform="translate(-149.81 -112.5)"/><path class="cls-7" d="M344.7,309.17s1.29.43.85.91c-.22.24-2-.59-2-.59s.76-1.6,1.53-1.38C345.62,308.25,344.7,309.17,344.7,309.17Z" transform="translate(-149.81 -112.5)"/><path class="cls-7" d="M345.27,309.12s2.81-1,2.68.33C347.85,310.44,345.27,309.12,345.27,309.12Z" transform="translate(-149.81 -112.5)"/><path class="cls-7" d="M339.36,315.86l-.48,0a9.93,9.93,0,0,0-.36-3,5,5,0,0,0-3.59-3.78l.12-.52a5.5,5.5,0,0,1,3.94,4.14A10.29,10.29,0,0,1,339.36,315.86Z" transform="translate(-149.81 -112.5)"/><path class="cls-7" d="M338.35,311.41s-1.47-.74-1.29.08c.09.42,1.77,1.25,1.77,1.25s.59-2.52,0-3S338.35,311.41,338.35,311.41Z" transform="translate(-149.81 -112.5)"/><path class="cls-7" d="M336.92,309.68s-1.32-.3-1.2.34c.06.31,2,.51,2,.51s.18-1.76-.59-2C336.6,308.43,336.92,309.68,336.92,309.68Z" transform="translate(-149.81 -112.5)"/><path class="cls-7" d="M336.45,309.35s-1.9-2.28-2.46-1.1C333.56,309.14,336.45,309.35,336.45,309.35Z" transform="translate(-149.81 -112.5)"/><path class="cls-7" d="M339,313.15l-.43-.23a11.74,11.74,0,0,0,.86-3.17,5.66,5.66,0,0,0-1.72-5.29l.3-.42a6.26,6.26,0,0,1,1.89,5.78A12.11,12.11,0,0,1,339,313.15Z" transform="translate(-149.81 -112.5)"/><path class="cls-7" d="M339.7,308s-.88-1.21-1-.37c-.09.42,1.07,1.92,1.07,1.92s1.52-1.74,1-2.85C340.32,306,339.7,308,339.7,308Z" transform="translate(-149.81 -112.5)"/><path class="cls-7" d="M339.25,305.94s-1.06-.86-1.21-.22c-.08.31,1.57,1.35,1.57,1.35s.88-1.53.28-2.07C339.49,304.64,339.25,305.94,339.25,305.94Z" transform="translate(-149.81 -112.5)"/><path class="cls-7" d="M339,305.42s-.76-2.93-1.75-2.1C336.47,303.95,339,305.42,339,305.42Z" transform="translate(-149.81 -112.5)"/><path class="cls-6" d="M331.12,340.86h0a1,1,0,0,1-.73-1.12L335.26,316a2.64,2.64,0,0,1,3.28-1.91l.74.19a2.46,2.46,0,0,1,1.78,3.21l-8.71,22.76A1,1,0,0,1,331.12,340.86Z" transform="translate(-149.81 -112.5)"/><path class="cls-7" d="M352.09,318.89c-.18.61-1.17.09-1.86-.36l-.11,0c.24.22.42.49.15.7s-1-.41-1.48-.73a5,5,0,0,0-.84.18c.38.18.75.45.35.73-.23.17-1.12,0-1.68-.15l-.24.14c.48.12,1.1.39.74,1-.24.4-1.37.16-2,0a9.22,9.22,0,0,0-1,1.08l-.36-.34a9.48,9.48,0,0,1,1-1c.13-.55.65-2.52,1.48-2.37.53.09.2.83-.05,1.28h0l.24-.14c.37-.62,1.25-2,1.86-1.91s-.15.9-.56,1.32a5.71,5.71,0,0,1,1-.25c.35-.39,1-1,1.52-.78.31.16-.06.54-.34.77l.28,0C351,317.95,352.35,318,352.09,318.89Z" transform="translate(-149.81 -112.5)"/><path class="cls-7" d="M343.16,323.08l-.46-.13a10.11,10.11,0,0,0,.21-3.05,5.06,5.06,0,0,0-2.8-4.43l.2-.49a5.6,5.6,0,0,1,3.08,4.87A10.43,10.43,0,0,1,343.16,323.08Z" transform="translate(-149.81 -112.5)"/><path class="cls-7" d="M343,318.49s-1.3-1-1.27-.17c0,.43,1.49,1.58,1.49,1.58s1-2.37.53-3S343,318.49,343,318.49Z" transform="translate(-149.81 -112.5)"/><path class="cls-7" d="M341.92,316.5s-1.23-.56-1.24.1c0,.32,1.84.89,1.84.89s.5-1.7-.22-2.06C341.85,315.2,341.92,316.5,341.92,316.5Z" transform="translate(-149.81 -112.5)"/><path class="cls-7" d="M341.52,316.08s-1.43-2.63-2.2-1.57C338.74,315.3,341.52,316.08,341.52,316.08Z" transform="translate(-149.81 -112.5)"/><path class="cls-7" d="M343.34,320.34,343,320a11.7,11.7,0,0,0,1.43-3,5.78,5.78,0,0,0-.7-5.56l.37-.35a6.39,6.39,0,0,1,.78,6.09A12.08,12.08,0,0,1,343.34,320.34Z" transform="translate(-149.81 -112.5)"/><path class="cls-7" d="M344.94,315.41s-.63-1.37-1-.57c-.16.4.69,2.11.69,2.11s1.81-1.42,1.48-2.62C345.93,313.53,344.94,315.41,344.94,315.41Z" transform="translate(-149.81 -112.5)"/><path class="cls-7" d="M344.89,313.26s-.87-1.06-1.14-.46c-.13.29,1.28,1.64,1.28,1.64s1.14-1.34.65-2C345.36,312,344.89,313.26,344.89,313.26Z" transform="translate(-149.81 -112.5)"/><path class="cls-7" d="M344.71,312.7s-.2-3-1.32-2.42C342.54,310.75,344.71,312.7,344.71,312.7Z" transform="translate(-149.81 -112.5)"/><path class="cls-6" d="M330.67,344.72h0a.91.91,0,0,1-.48-1.19l9.3-21.71a2.61,2.61,0,0,1,3.48-1.25l.67.31a2.32,2.32,0,0,1,1.05,3.36L332,344.35A1,1,0,0,1,330.67,344.72Z" transform="translate(-149.81 -112.5)"/><path class="cls-7" d="M335.16,317.79h0a4.93,4.93,0,0,0-1.24.06c.23.09.39.22.26.42s-.89,0-1.4-.05a4.5,4.5,0,0,0-.65.38c.35,0,.7.11.47.41a3.29,3.29,0,0,1-1.4.41l-.15.18c.44-.06,1,0,.9.48-.07.36-1,.54-1.65.61a6.8,6.8,0,0,0-.52,1.13l-.45-.17a6.88,6.88,0,0,1,.47-1.05c-.08-.47-.3-2,.43-2.15.46-.09.45.5.4.9l.16-.18c.11-.58.38-1.76.89-1.92s.21.62,0,1.07a5.24,5.24,0,0,1,.79-.51c.16-.4.49-1,1-1,.29,0,.16.34,0,.6a5,5,0,0,1,1-.16c.68-.27,1.62-.51,1.7.14C336.23,317.75,335.72,317.82,335.16,317.79Z" transform="translate(-149.81 -112.5)"/><path class="cls-7" d="M329.35,323.3c0-.18-.74-4.43-4.68-4.57l0-.53c4.33.15,5.12,4.94,5.13,5l-.47.1.24-.05Z" transform="translate(-149.81 -112.5)"/><path class="cls-7" d="M328.11,320s-1.43-.33-1.12.27c.16.31,1.78.67,1.78.67s.07-2-.57-2.33S328.11,320,328.11,320Z" transform="translate(-149.81 -112.5)"/><path class="cls-7" d="M326.54,318.86s-1.22,0-1,.46c.11.23,1.83.07,1.83.07s-.16-1.39-.87-1.42C326,317.94,326.54,318.86,326.54,318.86Z" transform="translate(-149.81 -112.5)"/><path class="cls-7" d="M326.07,318.68s-2.08-1.45-2.36-.45C323.49,319,326.07,318.68,326.07,318.68Z" transform="translate(-149.81 -112.5)"/><path class="cls-7" d="M329,321.2l-.46-.14a8.12,8.12,0,0,0,.18-2.56,4.33,4.33,0,0,0-2.45-3.76l.2-.49C330.36,316.11,329.06,321.15,329,321.2Z" transform="translate(-149.81 -112.5)"/><path class="cls-7" d="M328.68,317.13s-1-.79-1-.12c0,.34,1.29,1.31,1.29,1.31s1-1.6.34-2.36C328.86,315.46,328.68,317.13,328.68,317.13Z" transform="translate(-149.81 -112.5)"/><path class="cls-7" d="M327.91,315.59s-1.08-.49-1.11,0c0,.25,1.62.78,1.62.78s.5-1.33-.13-1.64C327.89,314.55,327.91,315.59,327.91,315.59Z" transform="translate(-149.81 -112.5)"/><path class="cls-7" d="M327.57,315.23s-1.2-2.14-1.92-1.34C325.11,314.51,327.57,315.23,327.57,315.23Z" transform="translate(-149.81 -112.5)"/><path class="cls-6" d="M328.58,344.22h0a.9.9,0,0,1-1-.74l-1.66-20a2.27,2.27,0,0,1,2.48-2.19h.72a2.24,2.24,0,0,1,2.44,2.21l-2.06,20A.91.91,0,0,1,328.58,344.22Z" transform="translate(-149.81 -112.5)"/></g><g id="PUMPKIN-2"><path class="cls-7" d="M349.07,324.7c.47-1.25,3.57-2.3,5.21-1.88l1.55.64c-1.62.15-3.41.73-3.7,2.51Z" transform="translate(-149.81 -112.5)"/><ellipse class="cls-13" cx="352.71" cy="341.04" rx="12.98" ry="8.26" transform="translate(-252.75 410.45) rotate(-65.8)"/><ellipse class="cls-13" cx="337.02" cy="333.98" rx="12.98" ry="8.26" transform="translate(-255.58 391.97) rotate(-65.8)"/><ellipse class="cls-13" cx="344.86" cy="337.43" rx="13.94" ry="8.07" transform="translate(-254.1 401.16) rotate(-65.8)"/><path class="cls-8" d="M335.3,343.78A20.2,20.2,0,0,1,337.2,334c1.93-4.29,4.85-7.52,7.77-9" transform="translate(-149.81 -112.5)"/><path class="cls-8" d="M354,329.16c.83,3.14.25,7.43-1.67,11.7s-4.79,7.45-7.67,8.93" transform="translate(-149.81 -112.5)"/></g><g id="SACK_OF_POTATOES" data-name="SACK OF POTATOES"><ellipse class="cls-6" cx="286.63" cy="337.7" rx="3.51" ry="5.02" transform="translate(-244.75 0.25) rotate(-19.16)"/><ellipse class="cls-6" cx="291.58" cy="344.72" rx="3.49" ry="3.87" transform="translate(-246.2 1.27) rotate(-19.01)"/><ellipse class="cls-6" cx="288.41" cy="326.52" rx="4.33" ry="5.79" transform="matrix(0.02, -1, 1, 0.02, -193.59, 495.87)"/><ellipse class="cls-6" cx="303.26" cy="346.04" rx="4.33" ry="5.79" transform="matrix(0.02, -1, 1, 0.02, -198.56, 529.84)"/><ellipse class="cls-6" cx="295.8" cy="317.89" rx="4.42" ry="3.92" transform="translate(-255.07 371.82) rotate(-69.6)"/><ellipse class="cls-6" cx="313.76" cy="319.82" rx="4.33" ry="4.75" transform="translate(-245.19 389.92) rotate(-69.6)"/><ellipse class="cls-6" cx="301.83" cy="325.65" rx="6.29" ry="4.23" transform="translate(-281.47 117.02) rotate(-34.67)"/><ellipse class="cls-6" cx="304.38" cy="312.98" rx="4.23" ry="6.29" transform="translate(-235.16 3.71) rotate(-19.01)"/><ellipse class="cls-6" cx="317.72" cy="333.11" rx="4.23" ry="6.29" transform="translate(-214.69 -35.37) rotate(-12.57)"/><circle class="cls-6" cx="144.2" cy="223.44" r="4.23"/><circle class="cls-6" cx="160.59" cy="214.88" r="2.76"/><circle class="cls-6" cx="137.56" cy="205.81" r="2.42"/><ellipse class="cls-6" cx="294.57" cy="310.39" rx="3.82" ry="2.33" transform="translate(-247.23 26.24) rotate(-22.85)"/><ellipse class="cls-6" cx="305.74" cy="336.29" rx="4.99" ry="4.04" transform="translate(-204.58 -52.98) rotate(-10.21)"/><ellipse class="cls-6" cx="313.28" cy="343" rx="3.16" ry="4.22" transform="translate(-205.65 -51.54) rotate(-10.21)"/><path class="cls-15" d="M324.14,333.12c-.31,15.63-10.4,19.49-22.73,19.24s-22.26-4.5-22-20.13,12.46-28.07,22.9-27.86C311.94,304.57,324.45,317.49,324.14,333.12Z" transform="translate(-149.81 -112.5)"/><line class="cls-15" x1="154.23" y1="192.12" x2="153.28" y2="239.79"/><line class="cls-15" x1="157.64" y1="193.05" x2="156.71" y2="239.53"/><line class="cls-15" x1="161.02" y1="194.95" x2="160.15" y2="239.06"/><line class="cls-15" x1="164.4" y1="197.71" x2="163.59" y2="238.06"/><line class="cls-15" x1="167.75" y1="201.33" x2="167.05" y2="236.4"/><line class="cls-15" x1="171.07" y1="206.57" x2="170.54" y2="233.29"/><line class="cls-15" x1="133.4" y1="205.5" x2="132.87" y2="232.27"/><line class="cls-15" x1="136.93" y1="200.4" x2="136.23" y2="235.68"/><line class="cls-15" x1="140.43" y1="196.8" x2="139.62" y2="237.58"/><line class="cls-15" x1="143.9" y1="194.39" x2="143.02" y2="238.72"/><line class="cls-15" x1="147.36" y1="192.85" x2="146.43" y2="239.44"/><line class="cls-15" x1="150.8" y1="192.05" x2="149.85" y2="239.72"/><line class="cls-15" x1="134.79" y1="203.17" x2="172.59" y2="229.8"/><line class="cls-15" x1="136.82" y1="200.55" x2="173.65" y2="226.5"/><line class="cls-15" x1="139.1" y1="198.14" x2="174.07" y2="222.78"/><line class="cls-15" x1="141.63" y1="195.83" x2="174.28" y2="218.83"/><line class="cls-15" x1="144.71" y1="193.95" x2="173.79" y2="214.44"/><line class="cls-15" x1="148.32" y1="192.44" x2="172.26" y2="209.34"/><line class="cls-15" x1="153.32" y1="191.92" x2="169.02" y2="202.98"/><line class="cls-15" x1="131.06" y1="228.91" x2="146.34" y2="239.42"/><line class="cls-15" x1="129.84" y1="224" x2="152.38" y2="239.88"/><line class="cls-15" x1="129.61" y1="219.78" x2="157.72" y2="239.59"/><line class="cls-15" x1="129.95" y1="215.97" x2="162.19" y2="238.68"/><line class="cls-15" x1="130.67" y1="212.43" x2="165.84" y2="237.2"/><line class="cls-15" x1="131.74" y1="209.13" x2="168.74" y2="235.2"/><line class="cls-15" x1="133.12" y1="206.05" x2="170.97" y2="232.71"/><path class="cls-15" d="M297.22,305,294,300.18a.78.78,0,0,1,.91-1.17l2.43.88a2.49,2.49,0,0,0,2.57-.55l.92-.89a2.49,2.49,0,0,1,3.52.06l0,0,.63.67a2.49,2.49,0,0,0,2.71.62l1.75-.67a1.05,1.05,0,0,1,1.25,1.57l-3.24,4.81" transform="translate(-149.81 -112.5)"/></g><g id="ONION"><g id="ONION-2"><path class="cls-3" d="M351.85,344.33l-.6-.44c5.58-8,18.07-18.61,18.2-18.72l.48.57C369.79,325.85,357.38,336.45,351.85,344.33Z" transform="translate(-149.81 -112.5)"/><path class="cls-3" d="M352.6,345.43l-.65-.36c1.6-3,5-7.79,12.26-13.8a88,88,0,0,1,8-6l.39.63a86.85,86.85,0,0,0-8,5.91C360.73,335.13,355.43,340.14,352.6,345.43Z" transform="translate(-149.81 -112.5)"/><path class="cls-3" d="M351.37,344.05l-.5-.55A60.57,60.57,0,0,0,366,318.91l.71.22a57.52,57.52,0,0,1-9.23,17.95A58.16,58.16,0,0,1,351.37,344.05Z" transform="translate(-149.81 -112.5)"/><polygon class="cls-3" points="202.78 231.85 202.2 231.38 220.56 207.93 221.13 208.4 202.78 231.85"/><path class="cls-3" d="M354.58,349.83l-.64-.38c6.91-8.59,21.77-20.6,21.92-20.72l.48.53C376.2,329.38,361.42,341.33,354.58,349.83Z" transform="translate(-149.81 -112.5)"/><path class="cls-3" d="M355.33,350.86l-.69-.3c2-3.16,6.26-8.36,14.87-15.15,5.13-4.05,9.46-6.8,9.5-6.83l.39.6s-4.33,2.75-9.42,6.77C365.28,339.65,358.94,345.24,355.33,350.86Z" transform="translate(-149.81 -112.5)"/><path class="cls-3" d="M354.07,349.6l-.51-.5a77.53,77.53,0,0,0,7.28-7.56,69.4,69.4,0,0,0,11.65-18.76l.77.15a70.3,70.3,0,0,1-11.81,19A78.77,78.77,0,0,1,354.07,349.6Z" transform="translate(-149.81 -112.5)"/><polygon class="cls-3" points="205.6 237.28 204.99 236.86 229.71 208.64 230.32 209.05 205.6 237.28"/><polygon class="cls-3" points="205.66 233.42 204.97 231.5 229.63 204.5 230.24 204.92 205.66 233.42"/></g><path class="cls-9" d="M356.48,339.86a17,17,0,0,0-3.2,4.93l-.09.34a2.36,2.36,0,0,1-2.69,1.81,2.3,2.3,0,0,1-1.81-2.69c.16-.84,1-1.45,2.14-1.9h0a13.33,13.33,0,0,0,4.3-3.54A1.27,1.27,0,0,1,356.48,339.86Z" transform="translate(-149.81 -112.5)"/><path class="cls-9" d="M360,340.74a15.27,15.27,0,0,0-2.8,4.83,2.36,2.36,0,0,1-2.69,1.81,2.3,2.3,0,0,1-1.81-2.69c.13-.65.76-1.16,1.58-1.62h0s.24-.11.55-.28a15.76,15.76,0,0,0,3.86-3S359.85,339.63,360,340.74Z" transform="translate(-149.81 -112.5)"/><path class="cls-9" d="M354.78,342.78c-.31.17-.51.27-.55.28Z" transform="translate(-149.81 -112.5)"/><path class="cls-9" d="M360.14,344.85a23.68,23.68,0,0,0-3.72,6.41,2.43,2.43,0,0,1-2.78,1.79,2.3,2.3,0,0,1-1.81-2.69c.24-1.21,2.26-2.15,3.71-3.16.94-.93,2.09-2.08,3.18-3.28C358.72,343.92,360,343.74,360.14,344.85Z" transform="translate(-149.81 -112.5)"/></g><g id="CART-3"><path class="cls-2" d="M372.27,338.54l-6.86,13.9a16.93,16.93,0,0,1-15.18,9.44H302a20.52,20.52,0,0,1-19.1-13l-12.09-31,50.55,19.43a18.83,18.83,0,0,0,6.75,1.25Z" transform="translate(-149.81 -112.5)"/><path class="cls-1" d="M372.27,338.54l-6.86,13.9a16.93,16.93,0,0,1-15.18,9.44h-2.48a20.52,20.52,0,0,1-19.1-13l-4.19-10.68a18.72,18.72,0,0,0,3.7.37Z" transform="translate(-149.81 -112.5)"/><path class="cls-16" d="M272.38,317.19H267.6a.54.54,0,0,0-.19,1L321.5,339a20.23,20.23,0,0,0,7.26,1.35h46.93a.41.41,0,0,0,.15-.8l-5.48-2.11" transform="translate(-149.81 -112.5)"/><ellipse class="cls-7" cx="205.54" cy="255.12" rx="12.02" ry="15.67"/><ellipse class="cls-17" cx="201.91" cy="255.12" rx="8.39" ry="14.21"/><ellipse class="cls-17" cx="201.64" cy="255.12" rx="1.74" ry="2.94"/><path class="cls-5" d="M235.57,285.51H243a17,17,0,0,1,16.7,14L275.49,379a3.41,3.41,0,0,0,3.35,2.8h0a3.41,3.41,0,0,0,3.26-2.41L291.3,346a4.65,4.65,0,0,1,6.41-3l54,24.59" transform="translate(-149.81 -112.5)"/></g></g><g id="MAN-2"><g id="RIGHT_HAND" data-name="RIGHT HAND"><path class="cls-1" d="M263,255.29c-.67-.07-4.47-.23-8.92,4.23-4.29,4.3-5,7.74-5,8.54-10.72-17.76-10.67-42.64-12.89-49.69h3.71c4.74,0,9.41,2.86,10.54,7.46A101.86,101.86,0,0,0,263,255.29Z" transform="translate(-149.81 -112.5)"/><path class="cls-2" d="M263,255.29c-.67-.07-4.47-.23-8.92,4.23-4.29,4.3-5,7.74-5,8.54a56.42,56.42,0,0,1-3.32-6.45c.29-1.29,1.35-4.34,5.09-8a14.21,14.21,0,0,1,8.76-4.09,1.6,1.6,0,0,1,1.62,1Z" transform="translate(-149.81 -112.5)"/><path class="cls-18" d="M288.53,288.24l-9.48.27a2,2,0,0,1-1.94-1.26l-.65-1.58-6.21-.1c-8.94-4-15.51-8.92-21.3-17.34,0,0,.16-3.8,5.06-8.71s8.92-4.22,8.92-4.22c6.57,10.9,12.93,17.07,15.72,19.49l4.83.05A4.88,4.88,0,0,1,288,278l2.6,7.1a2.31,2.31,0,0,1-2.09,3.1Z" transform="translate(-149.81 -112.5)"/><path class="cls-5" d="M285.71,288.33a2.31,2.31,0,0,0,2.09-3.1l-1.44-3.93" transform="translate(-149.81 -112.5)"/><path class="cls-5" d="M282.58,288.39a2.31,2.31,0,0,0,2.09-3.1l-1.43-3.93" transform="translate(-149.81 -112.5)"/><path class="cls-5" d="M279.56,288.49a2.31,2.31,0,0,0,2.09-3.1l-1.44-3.93" transform="translate(-149.81 -112.5)"/><path class="cls-5" d="M270.26,285.57h6.21v-1a2.94,2.94,0,0,0-2.94-2.94H273l-2.2-1.53" transform="translate(-149.81 -112.5)"/></g><g id="CLOTHES"><path class="cls-11" d="M255.42,373.64a42,42,0,0,0-5.08-.3c-8.48,0-15.79,2.46-19.07,6,0-.09,0-.19,0-.28l-3-74.58-12.08,69a42.39,42.39,0,0,0-5.27-.32c-8.76,0-16.26,2.62-19.38,6.33a3.51,3.51,0,0,1-.07-1.29L207.76,268l-.88-37.32c.73-7,3.32-12.35,10.38-12.35h23.39a5.74,5.74,0,0,1,5.72,5.37Z" transform="translate(-149.81 -112.5)"/><path class="cls-5" d="M233.63,379.33a2.68,2.68,0,0,1,0-.28l0-.63" transform="translate(-149.81 -112.5)"/><line class="cls-19" x1="83.71" y1="264.07" x2="80.89" y2="180.22"/><line class="cls-5" x1="80.86" y1="179.3" x2="80.83" y2="178.39"/><line class="cls-5" x1="44.37" y1="265.66" x2="44.51" y2="264.75"/><polyline class="cls-20" points="44.77 262.96 60.32 156.58 58.76 120"/><line class="cls-5" x1="58.72" y1="119.1" x2="58.69" y2="118.18"/><line class="cls-5" x1="66.39" y1="260.95" x2="81.52" y2="173.88"/><path class="cls-5" d="M218.43,275.73c0,5.56-4.77,10.06-10.65,10.06" transform="translate(-149.81 -112.5)"/><path class="cls-7" d="M225.76,281.91c-5.93-4.51-14.1-11.2-18-17.46l-.32-11.26Z" transform="translate(-149.81 -112.5)"/><line class="cls-5" x1="89.34" y1="173.82" x2="80.47" y2="173.82"/><path class="cls-1" d="M241.25,222.5v15.73H229l-2.59-10.82c-1.27-5.32-4.91-9.07-10.38-9.07h21A4.17,4.17,0,0,1,241.25,222.5Z" transform="translate(-149.81 -112.5)"/></g><g id="SHOES"><path id="RIGHT-4" class="cls-7" d="M259.87,382.14H234.46a3.21,3.21,0,0,1-3.19-2.8c3.28-3.53,10.59-6,19.07-6a42,42,0,0,1,5.08.3v0l5.47,5.81A1.53,1.53,0,0,1,259.87,382.14Z" transform="translate(-149.81 -112.5)"/><path id="LEFT-4" class="cls-7" d="M220.75,382.14H195a3.53,3.53,0,0,1-3.43-2.68c3.11-3.71,10.62-6.33,19.38-6.33a42.39,42.39,0,0,1,5.27.32h0l5.66,6.11a1.53,1.53,0,0,1-1.12,2.57Z" transform="translate(-149.81 -112.5)"/></g><g id="LEFT_HAND" data-name="LEFT HAND"><path class="cls-1" d="M227.78,253.87l0-.08c-1.16-1.59-5.31-.49-9.26,2.44-3.73,2.77-6,6.2-5.22,7.9-7.32-8.87-9-19.38-10.47-29.15-1.29-8.55,3-14.35,9.45-15,3.37-.32,8.93,1.62,10,9A156.12,156.12,0,0,0,227.78,253.87Z" transform="translate(-149.81 -112.5)"/><path class="cls-2" d="M227.73,253.79c-1.16-1.59-5.3-.49-9.26,2.44s-6.22,6.6-5.05,8.19l-3.2-4.5c-1.13-1.76.84-6.4,5.23-9.26s10.19-3.87,10.89-1.65Z" transform="translate(-149.81 -112.5)"/><path class="cls-18" d="M236.49,286.65a15.34,15.34,0,0,1-10.41-4.23,62.72,62.72,0,0,1-12.76-18.16h0l-.05-.11h0c-.74-1.71,1.48-5.13,5.22-7.9,4-3,8.21-4.06,9.3-2.37h0c.08.26.15.52.25.77a108.3,108.3,0,0,0,11.17,21.14l5.91.08a4.88,4.88,0,0,1,4.52,3.2l2.6,7.1a2.31,2.31,0,0,1-2.09,3.1l-9.48.27a2,2,0,0,1-1.94-1.26l-.65-1.58Z" transform="translate(-149.81 -112.5)"/><path class="cls-5" d="M247.32,289.34a2.31,2.31,0,0,0,2.09-3.1L248,282.31" transform="translate(-149.81 -112.5)"/><path class="cls-5" d="M244.19,289.4a2.31,2.31,0,0,0,2.09-3.1l-1.44-3.93" transform="translate(-149.81 -112.5)"/><path class="cls-5" d="M241.17,289.5a2.31,2.31,0,0,0,2.09-3.1l-1.44-3.93" transform="translate(-149.81 -112.5)"/><line class="cls-5" x1="87.77" y1="172.29" x2="89.2" y2="176.17"/><line class="cls-5" x1="86.28" y1="163.28" x2="89.38" y2="163.28"/></g><g id="HEAD-2"><g id="HAT"><ellipse class="cls-7" cx="231.49" cy="206.35" rx="15.44" ry="3.37" transform="translate(-215.99 6.89) rotate(-25.43)"/><path class="cls-21" d="M216.81,212.87c.86,1.78,8.06.19,16.08-3.68s13.83-8.55,13-10.33-8.06-.09-16.08,3.78S216,211.09,216.81,212.87Z" transform="translate(-149.81 -112.5)"/><path class="cls-22" d="M226.55,204.27l0-1.41a3.76,3.76,0,0,1,2.75-3.65l2.61-.81a4.24,4.24,0,0,1,3.88.71l.81.65" transform="translate(-149.81 -112.5)"/></g><g id="NECK-2"><path class="cls-18" d="M235.26,218.53v-5.4l-7.68-4L223,218.52S229.3,223.43,235.26,218.53Z" transform="translate(-149.81 -112.5)"/><polygon class="cls-7" points="85.44 106.03 85.44 100.63 77.76 96.62 76.94 98.3 85.44 106.03"/></g><path id="HAIR-2" class="cls-6" d="M235.74,201.62c1.57-.61,5.45-.65,3.83,1.88s-5.87,1.48-8.08.82h0l-.74-.22a1.87,1.87,0,0,0-.76,1.17l-.29,1.45h-1.94l0-.22a2.09,2.09,0,0,1,1.56-2.2Z" transform="translate(-149.81 -112.5)"/><path id="HEAD-3" class="cls-18" d="M234.57,213.95H233a3.63,3.63,0,0,1-3.3-2.1l-.71-1.54h-1.25a1.85,1.85,0,0,1,0-3.7h1.95l.27-1.35a1.87,1.87,0,0,1,.76-1.17c1.29.39,4.25,1.38,6.52.9a41.79,41.79,0,0,0,.18,5.76,2.9,2.9,0,0,1-2.57,3.19Z" transform="translate(-149.81 -112.5)"/><g id="FACE"><path class="cls-23" d="M237.29,206.59a1.83,1.83,0,0,0-2,.78c-.44.74-.11,3.5-.11,3.5" transform="translate(-149.81 -112.5)"/><path class="cls-23" d="M233.41,206.6a4,4,0,0,0-2.49.54" transform="translate(-149.81 -112.5)"/><ellipse class="cls-7" cx="236.49" cy="208.3" rx="0.27" ry="0.52" transform="translate(-163.17 -96.28) rotate(-3.82)"/><ellipse class="cls-7" cx="232.62" cy="208.38" rx="0.29" ry="0.56" transform="matrix(1, -0.07, 0.07, 1, -163.18, -96.54)"/></g><path id="EAR" class="cls-23" d="M228.95,208.85a1.42,1.42,0,0,0-1.38-1.45h0" transform="translate(-149.81 -112.5)"/></g></g></g></g></g></svg>